<svg width="20" height="16" xmlns="http://www.w3.org/2000/svg"><path d="M12.5711.4872A1.5694 1.5694 0 0 0 11.4565 0a1.5682 1.5682 0 0 0-1.1267.4584 1.5684 1.5684 0 0 0-.4591 1.126c.0053.4226.1806.824.4864 1.1154l3.78 3.7741H1.5654C.7011 6.4739 0 7.1749 0 8.0392c0 .865.701 1.566 1.5653 1.566h12.537L10.357 13.356c-.585.6161-.5729 1.5858.028 2.186.601.6002 1.5714.6123 2.186.0265l6.3948-6.3948a1.5535 1.5535 0 0 0 .4583-1.107.4395.4395 0 0 0 0-.0387.4395.4395 0 0 0 0-.0387c0-.415-.1646-.8134-.4583-1.107L12.5711.4872z" fill="#FFF" fill-rule="evenodd"/></svg>
